/vscmnt/brussel_pixiu_data/_data_brussel/112/vsc11236/PredSimResults/SUBJ09mtu3D/weighted-trackIG/worker_04.mot
version=1
nRows=7
nColumns=50
inDegrees=yes
endheader
                time	         pelvis_tilt	         pelvis_list	     pelvis_rotation	           pelvis_tx	           pelvis_ty	           pelvis_tz	       hip_flexion_r	     hip_adduction_r	      hip_rotation_r	        knee_angle_r	       ankle_angle_r	         mtp_angle_r	       hip_flexion_l	     hip_adduction_l	      hip_rotation_l	        knee_angle_l	       ankle_angle_l	         mtp_angle_l	    lumbar_extension	      lumbar_bending	     lumbar_rotation	 ercspn_r/activation	 intobl_r/activation	 extobl_r/activation	    abd_r/activation	    add_r/activation	hamstrings_r/activation	bifemsh_r/activation	glut_max_r/activation	iliopsoas_r/activation	rect_fem_r/activation	  vasti_r/activation	gastroc_r/activation	 soleus_r/activation	tib_ant_r/activation	 ercspn_l/activation	 intobl_l/activation	 extobl_l/activation	    abd_l/activation	    add_l/activation	hamstrings_l/activation	bifemsh_l/activation	glut_max_l/activation	iliopsoas_l/activation	rect_fem_l/activation	  vasti_l/activation	gastroc_l/activation	 soleus_l/activation	tib_ant_l/activation	
          0.00000000	         -7.79163964	         -4.64526540	          7.96238899	          0.00000000	          0.98271871	         -0.01393706	         31.04991209	          1.27621480	         -5.13562409	         -1.86589075	          6.48158036	          0.21589344	         -9.98647392	         -4.77376200	          6.48383506	         -6.11242701	         11.28917980	         26.27753571	         -0.25173813	          2.83383753	         -3.50307494	          0.08964259	          0.13107581	          0.03279287	          0.01218885	          0.07154519	          0.12366766	          0.19925942	          0.00999999	          0.11311949	          0.00999999	          0.00999999	          0.00999999	          0.00999999	          0.26398437	          0.03576450	          0.00999999	          0.00999999	          0.06078013	          0.01524413	          0.02358975	          0.14064480	          0.05938398	          0.48883414	          0.00999999	          0.00999999	          0.35266381	          0.29082706	          0.01527472	
          0.01313320	         -7.89515081	         -4.56072137	          7.96276766	          0.01792752	          0.98043030	         -0.01356040	         31.27153785	          1.37052921	         -4.97775270	         -3.70288646	          6.04537848	          0.21808093	        -10.29029132	         -4.71487533	          6.07054768	         -7.33084755	         10.71537635	         28.21292141	          0.04787727	          3.13506566	         -3.60905855	          0.07354465	          0.10753733	          0.02690395	          0.00999999	          0.12313980	          0.10672662	          0.16347658	          0.06987645	          0.09280559	          0.00999999	          0.00999999	          0.02215848	          0.01485683	          0.27565892	          0.07965287	          0.00999999	          0.00999999	          0.04986529	          0.04469247	          0.01935352	          0.11538793	          0.04871986	          0.50182444	          0.00999999	          0.00999999	          0.32707343	          0.27479691	          0.01253170	
          0.02626639	         -7.97712763	         -4.46931852	          7.91268938	          0.03632575	          0.97840743	         -0.01311676	         31.28724836	          1.44820108	         -4.79230418	         -5.43888622	          5.57227251	          0.20077521	        -10.46711871	         -4.63508709	          5.63346962	         -8.86266861	          9.98793463	         30.22829877	          0.37339041	          3.43973123	         -3.68531457	          0.06173657	          0.08822587	          0.02207257	          0.06137893	          0.10647503	          0.09561428	          0.13411960	          0.11248102	          0.07613964	          0.00999999	          0.00999999	          0.01817928	          0.01218886	          0.32615156	          0.07688897	          0.00999999	          0.00999999	          0.04091052	          0.03666664	          0.02194971	          0.09466666	          0.03997079	          0.48866145	          0.00999999	          0.01808643	          0.29879952	          0.25507767	          0.01028126	
          0.03939959	         -8.04084784	         -4.36658613	          7.81332419	          0.05487867	          0.97691448	         -0.01257752	         31.11629718	          1.53208407	         -4.63856171	         -6.85767107	          4.94993562	          0.17735079	        -10.42302087	         -4.52590651	          5.18343153	        -10.81770718	          9.03918650	         32.31784054	          0.69192221	          3.73937200	         -3.72799690	          0.07125736	          0.07238234	          0.01810879	          0.11862398	          0.12877987	          0.08141191	          0.11003452	          0.16151324	          0.06246655	          0.00999999	          0.00999999	          0.01491466	          0.00999999	          0.35946830	          0.10396193	          0.00999999	          0.00999999	          0.03356385	          0.04535907	          0.02027052	          0.07766651	          0.03279287	          0.47177159	          0.00999999	          0.01485683	          0.24822333	          0.21343164	          0.00999999	
          0.05253279	         -8.08537164	         -4.25797724	          7.66833997	          0.07330895	          0.97612937	         -0.01195480	         30.85077302	          1.63027575	         -4.51024768	         -8.16306952	          4.47936783	          0.14737333	        -10.07430610	         -4.38892870	          4.72196303	        -13.30982820	          7.86449166	         34.36489040	          0.97826370	          4.04226256	         -3.73411141	          0.06796113	          0.05938399	          0.01485683	          0.15430222	          0.14503247	          0.06734532	          0.09027461	          0.19289133	          0.05124886	          0.00999999	          0.00999999	          0.01223630	          0.00999999	          0.37905325	          0.13363322	          0.00999999	          0.00999999	          0.02753648	          0.05969080	          0.01977494	          0.06371922	          0.02690395	          0.43467245	          0.00999999	          0.01218885	          0.20364760	          0.17510377	          0.00999999	
          0.06566598	         -8.10918664	         -4.14566956	          7.48002489	          0.09141606	          0.97610449	         -0.01126701	         30.53903856	          1.73997026	         -4.38929022	         -9.42842751	          4.20533712	          0.12791467	         -9.37519091	         -4.22739105	          4.24377419	        -16.39024651	          6.47074819	         36.16590452	          1.21572293	          4.35158694	         -3.70185420	          0.06714070	          0.04871986	          0.01218885	          0.16810972	          0.12966421	          0.06045711	          0.07406318	          0.20069510	          0.04204563	          0.00999999	          0.07645169	          0.01003891	          0.00999999	          0.38593131	          0.15015666	          0.00999999	          0.00999999	          0.02259150	          0.08282846	          0.02750462	          0.05227658	          0.02207256	          0.37340098	          0.00999999	          0.00999999	          0.16707674	          0.14365879	          0.00999999	
          0.07879918	         -8.11292885	         -4.01984728	          7.25126960	          0.10909049	          0.97686553	         -0.01055463	         30.13705748	          1.85203619	         -4.25053443	        -10.54082720	          4.04391749	          0.10909899	         -8.32727733	         -4.03771436	          3.73905555	        -20.02635025	          4.91971188	         37.30353026	          1.39683920	          4.65807341	         -3.63092099	          0.05508363	          0.03997079	          0.00999999	          0.16500247	          0.10637922	          0.05349065	          0.06076297	          0.18749468	          0.03449512	          0.00999999	          0.14796762	          0.00999999	          0.00999999	          0.38501766	          0.16090151	          0.00999999	          0.00999999	          0.01853454	          0.09609887	          0.02522884	          0.04694867	          0.01810879	          0.30634596	          0.00999999	          0.00999999	          0.13707324	          0.11786067	          0.00999999	
